# Blender v3.2.0 OBJ File: ''
# www.blender.org
mtllib world.mtl
o Cube_Cube.001
v -22.000000 20.000000 -0.000000
v -22.000000 20.000000 2.000000
v -22.000000 22.000000 -0.000000
v -22.000000 22.000000 2.000000
v 22.000000 20.000000 -0.000000
v 22.000000 20.000000 2.000000
v 22.000000 22.000000 -0.000000
v 22.000000 22.000000 2.000000
vt 0.375000 0.000000
vt 0.625000 0.000000
vt 0.625000 0.250000
vt 0.375000 0.250000
vt -6.894549 0.909978
vt -6.894549 -0.113742
vt 7.874369 -0.113742
vt 7.874369 0.909978
vt 0.375000 0.500000
vt 0.625000 0.500000
vt 0.625000 0.750000
vt 0.375000 0.750000
vt -7.126930 0.005777
vt -7.126930 1.014900
vt 7.419358 1.014900
vt 7.419362 0.005777
vt -7.043207 0.014393
vt 7.483341 0.014393
vt 7.483341 1.007169
vt -7.043207 1.007169
vt -6.674963 0.013010
vt 7.954269 0.013010
vt 7.954259 1.014677
vt -6.674965 1.014677
vn -1.0000 0.0000 0.0000
vn 0.0000 1.0000 0.0000
vn 1.0000 0.0000 0.0000
vn 0.0000 -1.0000 0.0000
vn 0.0000 0.0000 -1.0000
vn 0.0000 0.0000 1.0000
g Cube_Cube.001_Material.002
usemtl Material.002
s off
f 1/1/1 2/2/1 4/3/1 3/4/1
f 3/5/2 4/6/2 8/7/2 7/8/2
f 7/9/3 8/10/3 6/11/3 5/12/3
f 5/13/4 6/14/4 2/15/4 1/16/4
f 3/17/5 7/18/5 5/19/5 1/20/5
f 8/21/6 4/22/6 2/23/6 6/24/6
o Cube.001_Cube.005
v 20.000000 22.000000 -0.001000
v 20.000000 22.000000 1.999000
v 22.000000 22.000000 -0.001000
v 22.000000 22.000000 1.999000
v 20.000000 -22.000000 -0.001000
v 20.000000 -22.000000 1.999000
v 22.000000 -22.000000 -0.001000
v 22.000000 -22.000000 1.999000
vt 0.375000 0.000000
vt 0.625000 0.000000
vt 0.625000 0.250000
vt 0.375000 0.250000
vt -6.894549 0.909978
vt -6.894549 -0.113742
vt 7.874369 -0.113742
vt 7.874369 0.909978
vt 0.375000 0.500000
vt 0.625000 0.500000
vt 0.625000 0.750000
vt 0.375000 0.750000
vt -7.126930 0.005777
vt -7.126930 1.014900
vt 7.419358 1.014900
vt 7.419362 0.005777
vt -7.043207 0.014393
vt 7.483341 0.014393
vt 7.483341 1.007169
vt -7.043207 1.007169
vt -6.674963 0.013010
vt 7.954269 0.013010
vt 7.954259 1.014677
vt -6.674965 1.014677
vn 0.0000 1.0000 0.0000
vn 1.0000 0.0000 0.0000
vn 0.0000 -1.0000 0.0000
vn -1.0000 0.0000 0.0000
vn 0.0000 0.0000 -1.0000
vn 0.0000 0.0000 1.0000
g Cube.001_Cube.005_Material.003
usemtl Material.003
s off
f 9/25/7 10/26/7 12/27/7 11/28/7
f 11/29/8 12/30/8 16/31/8 15/32/8
f 15/33/9 16/34/9 14/35/9 13/36/9
f 13/37/10 14/38/10 10/39/10 9/40/10
f 11/41/11 15/42/11 13/43/11 9/44/11
f 16/45/12 12/46/12 10/47/12 14/48/12
o Cube.002_Cube.006
v -22.000000 -22.000000 -0.000000
v -22.000000 -22.000000 2.000000
v -22.000000 -20.000000 -0.000000
v -22.000000 -20.000000 2.000000
v 22.000000 -22.000000 -0.000000
v 22.000000 -22.000000 2.000000
v 22.000000 -20.000000 -0.000000
v 22.000000 -20.000000 2.000000
vt 0.375000 0.000000
vt 0.625000 0.000000
vt 0.625000 0.250000
vt 0.375000 0.250000
vt -6.894549 0.909978
vt -6.894549 -0.113742
vt 7.874369 -0.113742
vt 7.874369 0.909978
vt 0.375000 0.500000
vt 0.625000 0.500000
vt 0.625000 0.750000
vt 0.375000 0.750000
vt -7.126930 0.005777
vt -7.126930 1.014900
vt 7.419358 1.014900
vt 7.419362 0.005777
vt -7.043207 0.014393
vt 7.483341 0.014393
vt 7.483341 1.007169
vt -7.043207 1.007169
vt -6.674963 0.013010
vt 7.954269 0.013010
vt 7.954259 1.014677
vt -6.674965 1.014677
vn -1.0000 0.0000 0.0000
vn 0.0000 1.0000 0.0000
vn 1.0000 0.0000 0.0000
vn 0.0000 -1.0000 0.0000
vn 0.0000 0.0000 -1.0000
vn 0.0000 0.0000 1.0000
g Cube.002_Cube.006_Material.004
usemtl Material.004
s off
f 17/49/13 18/50/13 20/51/13 19/52/13
f 19/53/14 20/54/14 24/55/14 23/56/14
f 23/57/15 24/58/15 22/59/15 21/60/15
f 21/61/16 22/62/16 18/63/16 17/64/16
f 19/65/17 23/66/17 21/67/17 17/68/17
f 24/69/18 20/70/18 18/71/18 22/72/18
o Cube.003_Cube.007
v -22.000000 22.000000 0.000000
v -22.000000 22.000000 2.000000
v -20.000000 22.000000 0.000000
v -20.000000 22.000000 2.000000
v -22.000000 -22.000000 0.000000
v -22.000000 -22.000000 2.000000
v -20.000000 -22.000000 0.000000
v -20.000000 -22.000000 2.000000
vt 0.375000 0.000000
vt 0.625000 0.000000
vt 0.625000 0.250000
vt 0.375000 0.250000
vt -6.894549 0.909978
vt -6.894549 -0.113742
vt 7.874369 -0.113742
vt 7.874369 0.909978
vt 0.375000 0.500000
vt 0.625000 0.500000
vt 0.625000 0.750000
vt 0.375000 0.750000
vt -7.126930 0.005777
vt -7.126930 1.014900
vt 7.419358 1.014900
vt 7.419362 0.005777
vt -7.043207 0.014393
vt 7.483341 0.014393
vt 7.483341 1.007169
vt -7.043207 1.007169
vt -6.674963 0.013010
vt 7.954269 0.013010
vt 7.954259 1.014677
vt -6.674965 1.014677
vn 0.0000 1.0000 0.0000
vn 1.0000 0.0000 0.0000
vn 0.0000 -1.0000 0.0000
vn -1.0000 0.0000 0.0000
vn 0.0000 0.0000 -1.0000
vn 0.0000 0.0000 1.0000
g Cube.003_Cube.007_Material.005
usemtl Material.005
s off
f 25/73/19 26/74/19 28/75/19 27/76/19
f 27/77/20 28/78/20 32/79/20 31/80/20
f 31/81/21 32/82/21 30/83/21 29/84/21
f 29/85/22 30/86/22 26/87/22 25/88/22
f 27/89/23 31/90/23 29/91/23 25/92/23
f 32/93/24 28/94/24 26/95/24 30/96/24
o Plane
v -20.000000 20.000000 0.000000
v -20.000000 -20.000000 0.000000
v 20.000000 20.000000 0.000000
v 20.000000 -20.000000 0.000000
vt -0.301293 -1.020605
vt 1.301293 -1.020605
vt 1.301293 2.020605
vt -0.301293 2.020605
vn 0.0000 0.0000 1.0000
g Plane_Plane_Material.001
usemtl Material.001
s off
f 33/97/25 34/98/25 36/99/25 35/100/25
